<?xml version="1.0"?><!DOCTYPE svg PUBLIC '-//W3C//DTD SVG 1.0//EN' 'http://www.w3.org/TR/2001/REC-SVG-20010904/DTD/svg10.dtd'><svg style="stroke-dasharray:none; shape-rendering:auto; font-family:&apos;Dialog&apos;; text-rendering:auto; fill-opacity:1; color-interpolation:auto; color-rendering:auto; font-size:12; fill:black; stroke:black; image-rendering:auto; stroke-miterlimit:10; stroke-linecap:square; stroke-linejoin:miter; font-style:normal; stroke-width:1; stroke-dashoffset:0; font-weight:normal; stroke-opacity:1;" xmlns="http://www.w3.org/2000/svg" contentScriptType="text/ecmascript" preserveAspectRatio="xMidYMid meet" xmlns:xlink="http://www.w3.org/1999/xlink" zoomAndPan="magnify" version="1.0" contentStyleType="text/css">  <!--Generated by the Batik Graphics2D SVG Generator-->  <defs id="genericDefs" />  <g>    <g style="fill:rgb(255,128,255); stroke:rgb(255,128,255);">      <line x1="352.0985" x2="335.7931" y1="740.9518" style="fill:none;" y2="-58.882" />      <path d="M407.749 281.4954 L407.9587 280.5613 L408.5794 279.832 L409.4668 279.475 L410.419 279.5706 L411.2179 280.0978 L411.6805 280.937 L411.7 281.8942 L411.272 282.7504 L410.4953 283.3098 L409.5477 283.4441 L408.6465 283.1235 L407.9966 282.42 L407.749 281.4954" style="fill:none; fill-opacity:0.5098; stroke-opacity:0.5098;" />      <path d="M372.7716 364 L358.5113 358.6227 M384.1286 338.4246 L375.0948 333.7749 M367.6205 379.1455 L357.8997 376.1913 M372.0725 365.8737 L362.5378 362.3673 M374.9566 358.4121 L365.5415 354.5958 M363.936 392.6498 L349.125 389.0609 M370.0717 371.5305 L360.4534 368.2594 M377.2796 352.8808 L367.9602 348.8325 M365.9463 384.907 L356.1566 382.1914 M370.7232 369.6396 L361.1312 366.2893 M373.4841 362.1321 L364.0079 358.4695 M374.2124 360.2686 L364.7661 356.5292 M366.4894 382.9819 L351.8368 378.7893 M364.9101 388.7693 L355.0764 386.2157 M381.4488 343.7926 L372.3033 339.3666 M378.0836 351.0497 L368.7978 346.9257 M365.4203 386.8365 L355.608 384.2013 M383.2206 340.2058 L374.1496 335.6318 M364.4146 390.7079 L354.5607 388.2346 M376.4902 354.7176 L362.4626 348.7617 M385.0512 336.6493 L371.5575 329.5651 M375.7155 356.5626 L366.3314 352.6682 M369.4361 373.4259 L354.9674 368.6376 M367.0471 381.0615 L357.3025 378.1864 M368.2099 377.234 L358.5141 374.2006 M371.3906 367.7544 L361.8272 364.326 M382.3274 341.9951 L373.2191 337.4958 M380.5849 345.5958 L366.8133 339.0706 M379.7369 347.4072 L370.5194 343.1317 M368.8151 375.3271 L359.1443 372.2145 M378.9023 349.2244 L369.6512 345.0258 M340.4977 300.7868 L340.1794 300.6747 L339.8621 300.7852 L339.6839 301.071 M339.6839 301.071 L327.9496 353.5668 M327.9496 353.5668 L327.551 355.4538 M327.551 355.4538 L327.3922 356.451 M327.3922 356.451 L327.2112 358.1434 M327.2112 358.1434 L327.1414 360.0043 M327.1414 360.0043 L327.2536 362.5382 M327.2536 362.5382 L327.4016 364.5739 M327.4016 364.5739 L328.4655 379.1677 M328.4655 379.1677 L329.4703 392.2338 M329.4703 392.2338 L329.5034 392.376 M329.5034 392.376 L329.585 392.516 M329.585 392.516 L329.6739 392.6001 M329.6739 392.6001 L329.7975 392.6678 M329.7975 392.6678 L329.987 392.7002 M329.987 392.7002 L330.1697 392.6965 M330.1697 392.6965 L364.7555 391.9914 M364.7555 391.9914 L364.9711 391.9386 M364.9711 391.9386 L365.1895 391.7284 M365.1895 391.7284 L365.8642 389.1336 M365.8642 389.1336 L366.898 385.2689 M385.6582 337.6816 L381.1217 346.8705 L376.9715 356.2392 L373.2133 365.7718 L369.8539 375.4536 L366.8991 385.2653 M385.6582 337.6816 L385.7117 337.3367 L385.5325 337.0377 M385.5325 337.0377 L384.4752 336.1864 M384.4752 336.1864 L377.9754 330.9536 M377.9754 330.9536 L340.4977 300.7868" style="fill:none;" />      <path d="M344.7392 297.3228 L343.3355 297.8284 L342.1307 298.7064 L341.2202 299.8884 L340.6784 301.2783 M340.6784 301.2783 L331.762 341.1689 M331.762 341.1689 L329.1017 353.0748 M329.1017 353.0748 L328.4662 356.5816 M328.4662 356.5816 L328.2726 357.8906 M328.2726 357.8906 L328.2234 359.8721 M328.2234 359.8721 L328.2227 361.8563 M328.2227 361.8563 L328.5757 366.7036 M328.5757 366.7036 L329.7386 382.6513 M329.7386 382.6513 L330.8646 398.8709 M330.8646 398.8709 L331.9192 415.983 M331.9192 415.983 L332.6534 424.9749 M332.6534 424.9749 L334.7151 450.2198 M334.7151 450.2198 L336.0215 465.0121 M336.0215 465.0121 L339.0579 493.1099 M339.0579 493.1099 L340.8515 509.7154 M340.8515 509.7154 L342.8195 527.9239 M342.8195 527.9239 L344.6083 544.4714 M344.6083 544.4714 L345.0249 545.0706 M345.0249 545.0706 L346.5383 545.6111 L348.1372 545.7747 L349.7282 545.5522 L351.2196 544.9564 M351.2196 544.9564 L351.6078 544.342 M351.6078 544.342 L353.2849 519.2993 M353.2849 519.2993 L357.0038 463.7733 M357.0038 463.7733 L357.6134 447.9553 M357.6134 447.9553 L358.0146 437.7623 M358.0146 437.7623 L358.7091 427.5332 M358.7091 427.5332 L359.6303 418.8586 M359.6303 418.8586 L360.0675 415.7772 M385.0512 336.6493 L380.8323 344.9068 L376.9595 353.334 L373.4421 361.9138 L370.2834 370.6328 L367.4917 379.4762 L365.0702 388.4271 L363.0234 397.472 L361.3548 406.594 L360.0675 415.7772 M367.9648 296.5636 L362.1657 297.0232 M362.1657 297.0232 L361.9975 297.0255 M361.9975 297.0255 L361.8574 297.2196 M361.8574 297.2196 L361.7757 297.5481 M361.7757 297.5481 L361.3276 298.4289 M361.3276 298.4289 L361.0653 298.7466 M361.0653 298.7466 L360.5193 299.2201 M360.5193 299.2201 L359.9791 299.5023 M359.9791 299.5023 L359.0769 299.7265 M359.0769 299.7265 L350.9104 299.9124 M392.5745 315.3625 L390.3088 317.8238 L388.3951 320.5685 L386.8675 323.5438 L385.7527 326.6984 L385.0713 329.9736 L384.8367 333.3112 L385.0512 336.6493 M392.5721 315.3637 L399.5107 308.4478 M399.5107 308.4478 L402.9477 305.011 M402.9477 305.011 L404.2753 303.6838 M404.2753 303.6838 L406.8895 299.9055 M406.8895 299.9055 L408.2385 298.2025 M408.2385 298.2025 L409.1283 297.3733 M409.1283 297.3733 L409.8153 296.9864 M409.8153 296.9864 L410.3682 296.7899 M410.3682 296.7899 L412.066 296.5204 M412.066 296.5204 L413.0958 296.3796 M413.0958 296.3796 L413.3926 296.3348 M413.3926 296.3348 L413.6871 296.2901 M413.6871 296.2901 L428.8637 281.1133 M428.8637 281.1133 L428.9349 279.6773 M428.9349 279.6773 L413.4168 262.5441 M413.4168 262.5441 L411.9821 262.4741 M411.9821 262.4741 L395.3812 276.0783 M395.3812 276.0783 L395.0733 277.1232 M395.0733 277.1232 L394.9242 277.4713 M394.9242 277.4713 L394.3036 278.5021 M394.3036 278.5021 L393.5224 279.3751 M393.5224 279.3751 L393.1833 279.7234 M393.1833 279.7234 L391.9092 280.7675 M391.9092 280.7675 L382.7956 288.2374 M382.7956 288.2374 L379.7724 290.7154 M379.7724 290.7154 L378.3721 291.8638 M378.3721 291.8638 L376.6718 293.2579 M376.6718 293.2579 L374.9133 294.2308 M374.9133 294.2308 L373.725 294.8506 M373.725 294.8506 L372.4655 295.3024 M372.4655 295.3024 L371.5005 295.6502 M371.5005 295.6502 L370.5627 295.9102 M370.5627 295.9102 L367.9636 296.5636 M344.7392 297.3228 L347.5203 297.6959 M347.5203 297.6959 L347.756 297.7358 M347.756 297.7358 L347.8977 297.8577 M347.8977 297.8577 L347.9611 297.9992 M347.9611 297.9992 L348.2478 298.5224 M348.2478 298.5224 L348.5806 298.9345 M348.5806 298.9345 L348.9776 299.2847 M348.9776 299.2847 L349.4348 299.5647 M349.4348 299.5647 L349.9402 299.7675 M349.9402 299.7675 L350.5554 299.899 M350.5554 299.899 L350.9104 299.9124" style="fill:none;" />      <path d="M405.4459 285.3328 L280.2266 287.8855" style="fill:none;" />      <path d="M404.0625 313.2986 A28 28 0 1 0 377.4801 283.9493" style="fill:none;" />      <path d="M342.9458 340.0349 L344.9458 340.0349 L344.9458 342.0349 L342.9458 342.0349 L342.9458 340.0349 Z" style="fill:none; stroke:fuchsia;" />    </g>  </g></svg>
