<?xml version="1.0"?>

        <!DOCTYPE svg PUBLIC '-//W3C//DTD SVG 1.0//EN' 'http://www.w3.org/TR/2001/REC-SVG-20010904/DTD/svg10.dtd'>
<svg stroke-dasharray="none" shape-rendering="auto" xmlns="http://www.w3.org/2000/svg" font-family="&apos;Dialog&apos;" text-rendering="auto" fill-opacity="1" contentScriptType="text/ecmascript" color-interpolation="auto" color-rendering="auto" preserveAspectRatio="xMidYMid meet" font-size="12" fill="black" xmlns:xlink="http://www.w3.org/1999/xlink" stroke="black" image-rendering="auto" stroke-miterlimit="10" zoomAndPan="magnify" version="1.0" stroke-linecap="square" stroke-linejoin="miter" contentStyleType="text/css" font-style="normal" stroke-width="1" stroke-dashoffset="0" font-weight="normal" stroke-opacity="1">
    <!--Generated by the Batik Graphics2D SVG Generator-->
    <defs id="genericDefs" />
    <g>
        <g fill="rgb(255,128,255)" stroke="rgb(255,128,255)">
            <path fill="none" d="M382.065 317.8298 L372.1685 316.8974 M372.1685 316.8974 L362.5134 314.5214 M362.5134 314.5214 L353.3104 310.753 M353.3104 310.753 L344.7591 305.6762 M344.7591 305.6762 L337.0487 299.4044 M337.0487 299.4044 L330.3371 292.063 M330.3371 292.063 L324.7775 283.8222 M324.7775 283.8222 L320.4854 274.8523 M320.4854 274.8523 L317.5546 265.3517 M317.5546 265.3517 L316.052 255.5238 M316.052 255.5238 L316.0057 245.5793 M316.0057 245.5793 L317.4168 235.7377 M317.4168 235.7377 L320.2569 226.2082 M320.2569 226.2082 L324.4637 217.1999 M324.4637 217.1999 L329.9463 208.9044 M329.9463 208.9044 L336.5883 201.5031 M336.5883 201.5031 L344.2416 195.1553 M344.2416 195.1553 L352.7449 190 M352.7449 190 L361.9096 186.147 M361.9096 186.147 L371.542 183.6794 M371.542 183.6794 L381.4325 182.652 M381.4325 182.652 L382.4275 182.9927 M382.4275 182.9927 L382.9536 183.9035 M382.9536 183.9035 L384.2682 191.7384 M384.2682 191.7384 L394.0186 191.0942 M394.0186 191.0942 L395.1953 191.5476 M395.1953 191.5476 L395.6104 192.7386 M395.6104 192.7386 L383.7073 316.4873 M383.7073 316.4873 L383.4352 317.2092 M383.4352 317.2092 L383.1647 317.4963 M383.1647 317.4963 L382.5833 317.7904 M382.5833 317.7904 L382.065 317.8298" />
            <path fill="none" d="M382 249 L384 249 L384 251 L382 251 L382 249 Z" stroke="fuchsia" />
        </g>
    </g>
</svg>
